<svg xmlns="http://www.w3.org/2000/svg" viewBox="0 0 33.5 28.1">
<g id="shop">
	<polyline fill="none" stroke="#A2AAAD" stroke-width="0.9" stroke-linecap="round" stroke-miterlimit="10" points="33.1,2.3
		29.3,2.3 24.3,19.1 4.7,19.1 0.6,5.1 21.6,5.1 		"/>
	<path fill="none" stroke="#A2AAAD" stroke-width="0.9" stroke-linecap="round" stroke-miterlimit="10" d="M10.1,25.3
		c0,1.3-1.1,2.4-2.4,2.4s-2.4-1.1-2.4-2.4c0-1.3,1.1-2.4,2.4-2.4S10.1,24,10.1,25.3L10.1,25.3z"/>
	<path fill="none" stroke="#A2AAAD" stroke-width="0.9" stroke-linecap="round" stroke-miterlimit="10" d="M23.1,25.3
		c0,1.3-1.1,2.4-2.4,2.4s-2.4-1.1-2.4-2.4c0-1.3,1.1-2.4,2.4-2.4C22.1,22.9,23.1,24,23.1,25.3C23.1,25.3,23.1,25.3,23.1,25.3z"/>
	<polyline fill="none" stroke="#A2AAAD" stroke-width="0.9" stroke-linecap="round" stroke-miterlimit="10" points="18.6,9.7
		22.6,5.1 18.7,0.4 		"/>
</g>
</svg>
