<svg viewBox="0 0 80 80" fill="none" xmlns="http://www.w3.org/2000/svg">
<path d="M55.9 34.6167C55.9 39.4852 54.4563 44.2445 51.7516 48.2926C49.0468 52.3407 45.2024 55.4959 40.7045 57.3592C36.2066 59.2225 31.2572 59.7101 26.4821 58.7606C21.707 57.811 17.3207 55.4668 13.8779 52.0245C10.4351 48.5821 8.0903 44.1961 7.14009 39.4212C6.18987 34.6462 6.67689 29.6968 8.53955 25.1986C10.4022 20.7004 13.5569 16.8556 17.6046 14.1503C21.6524 11.445 26.4114 10.0007 31.28 10C34.513 9.99956 37.7144 10.636 40.7014 11.8729C43.6884 13.1098 46.4026 14.923 48.6888 17.2089C50.975 19.4948 52.7885 22.2087 54.0259 25.1955C55.2632 28.1824 55.9 31.3837 55.9 34.6167V34.6167Z" stroke="#697981" stroke-width="5" stroke-linecap="round"/>
<path d="M51.4233 50.2832L73.8033 72.6632" stroke="#697981" stroke-width="5" stroke-linecap="round"/>
</svg>